<svg width="42" height="42" viewBox="0 0 42 42" fill="none" xmlns="http://www.w3.org/2000/svg">
<path d="M11.5781 19.6582C9.72494 24.8098 17.5569 31.6019 20.9492 34.1875C24.3377 36.777 27.7021 33.6719 27.7021 33.6719L20.8467 42C20.7758 40.5124 19.9332 39.084 19.3271 38.2969C17.6821 36.1324 17.096 35.7975 12.1729 30.0322C7.26982 24.2905 11.5428 19.696 11.5781 19.6582ZM41.9961 21.1533C40.5085 21.2242 39.084 22.0668 38.2969 22.6729C36.1363 24.3179 35.7978 24.9048 30.0322 29.8281C24.2769 34.7426 19.6783 30.4371 19.6621 30.4219C24.8137 32.2754 31.6068 24.4402 34.1924 21.0518C36.7741 17.6683 33.6977 14.3079 33.6885 14.2979L41.9961 21.1533ZM11.9678 12.1689C17.7045 7.27409 22.2922 11.5354 22.3379 11.5781C17.1903 9.72103 10.3982 17.5568 7.8125 20.9453C5.23913 24.3126 8.28886 27.6565 8.32715 27.6982L0 20.8428C1.48741 20.7719 2.91595 19.9342 3.70312 19.3242C5.86766 17.6792 6.20232 17.0883 11.9678 12.1689ZM22.5068 20.0596L26.3008 20.9961L22.4873 22.0039L21.4844 25.8135L20.5469 22.0195L16.667 20.9961L20.5273 20.0439L21.4844 16.1787L22.5068 20.0596ZM21.1572 0C21.2241 1.49156 22.0668 2.91601 22.6729 3.70312C24.3218 5.86371 24.9118 6.20638 29.8311 11.9678C34.7291 17.7044 30.459 22.2981 30.4219 22.3379C32.279 17.1863 24.4431 10.3942 21.0547 7.80859C17.6801 5.23661 14.3369 8.29482 14.3018 8.32715L21.1572 0Z" fill="#D9AA72"/>
</svg>
