<svg width="194" height="42" viewBox="0 0 194 42" fill="none" xmlns="http://www.w3.org/2000/svg">
<path d="M11.5781 19.6582C9.72494 24.8098 17.5569 31.6019 20.9492 34.1875C24.3377 36.777 27.7021 33.6719 27.7021 33.6719L20.8467 42C20.7758 40.5124 19.9332 39.084 19.3271 38.2969C17.6821 36.1324 17.096 35.7975 12.1729 30.0322C7.26982 24.2905 11.5428 19.696 11.5781 19.6582ZM58.1045 7.33105H57.6934C57.3446 7.31637 56.9981 7.4 56.6924 7.57324C56.3868 7.74648 56.1332 8.00253 55.959 8.31348C55.7871 8.63152 55.6902 8.98697 55.6768 9.35059V29.6855C55.7203 31.3817 55.1284 33.0301 54.0234 34.29C53.5172 34.8914 52.8894 35.3721 52.1836 35.6973C51.4778 36.0224 50.7108 36.1847 49.9375 36.1729V35.8779C51.0592 35.4306 51.9886 34.5847 52.5566 33.4941C53.262 32.3115 53.6326 30.9498 53.627 29.5625V9.32617C53.6149 8.78122 53.3934 8.26287 53.0107 7.88574C52.8296 7.69298 52.6117 7.5406 52.3711 7.4375C52.1303 7.3344 51.8712 7.28254 51.6104 7.28613H51.1992V7.00684H58.1045V7.33105ZM41.9961 21.1533C40.5085 21.2242 39.084 22.0668 38.2969 22.6729C36.1363 24.3179 35.7978 24.9048 30.0322 29.8281C24.2769 34.7426 19.6783 30.4371 19.6621 30.4219C24.8137 32.2754 31.6068 24.4402 34.1924 21.0518C36.7741 17.6683 33.6977 14.3079 33.6885 14.2979L41.9961 21.1533ZM72.6855 5.83984C76.3253 5.83988 79.2716 6.96676 81.5244 9.2207C83.7998 11.4749 84.9375 14.4315 84.9375 18.0898C84.9375 21.7481 83.7997 24.7039 81.5244 26.958C79.2523 29.2121 76.3062 30.3398 72.6855 30.3398C69.0649 30.3398 66.1179 29.2122 63.8457 26.958C61.5771 24.7005 60.4408 21.7445 60.4375 18.0898C60.4343 14.4349 61.5704 11.4783 63.8457 9.2207C66.0986 6.96654 69.0456 5.83984 72.6855 5.83984ZM94.9844 7.33301H94.4932C94.0519 7.31848 93.6223 7.47702 93.2939 7.77441C93.1345 7.91516 93.0057 8.08772 92.916 8.28125C92.8264 8.47477 92.7772 8.68492 92.7725 8.89844V21.3848C92.7725 23.762 93.4053 25.6802 94.6699 27.1396C95.2999 27.864 96.0832 28.4375 96.9619 28.8164C97.8405 29.1952 98.7923 29.3701 99.7471 29.3291C100.703 29.3661 101.656 29.2003 102.544 28.8428C103.432 28.4853 104.236 27.9441 104.903 27.2539C105.571 26.5213 106.088 25.6625 106.426 24.7275C106.763 23.7925 106.914 22.7995 106.869 21.8057V8.89355C106.863 8.6802 106.814 8.46976 106.725 8.27637C106.635 8.08308 106.506 7.911 106.348 7.76953C106.019 7.47215 105.59 7.3136 105.148 7.32812H104.657V7.00684H110.604V7.33301H110.083C109.649 7.32471 109.228 7.48281 108.904 7.77441C108.743 7.90824 108.612 8.07497 108.52 8.26367C108.427 8.45234 108.375 8.65891 108.368 8.86914V21.8105C108.362 24.3597 107.561 26.4189 105.965 27.9873C104.369 29.5557 102.239 30.3398 99.5752 30.3398C96.9016 30.3398 94.7457 29.5603 93.1074 28.002C91.4692 26.4435 90.6495 24.3914 90.6494 21.8457V8.96777C90.6631 8.67128 90.5906 8.377 90.4414 8.12109C90.2923 7.86543 90.073 7.65857 89.8096 7.52637C89.5352 7.39432 89.2337 7.32801 88.9297 7.33301H88.4375V7.00684H94.9844V7.33301ZM155.529 25.3994V8.73828C155.525 8.46465 155.468 8.19426 155.362 7.94336C155.256 7.69257 155.103 7.4659 154.912 7.27637C154.728 7.08707 154.509 6.93752 154.268 6.83691C154.027 6.73637 153.769 6.68651 153.509 6.69043H152.887V6.36914H159.604V6.70605H159.017C158.757 6.70185 158.499 6.75102 158.258 6.85156C158.017 6.95218 157.797 7.10149 157.613 7.29102C157.424 7.47577 157.272 7.69773 157.166 7.94336C157.06 8.18899 157.002 8.4539 156.996 8.72266V26.041C156.991 27.2757 157.067 28.5093 157.224 29.7334L157.288 30.3398H156.996L139.214 10.7803V27.5176C139.209 27.7839 139.259 28.0485 139.359 28.2939C139.46 28.5395 139.609 28.7615 139.797 28.9443C139.981 29.1331 140.201 29.2824 140.441 29.3838C140.682 29.4851 140.94 29.5367 141.2 29.5352H141.817V29.8711H135.104V29.5352H135.722C135.982 29.5384 136.24 29.4872 136.481 29.3857C136.722 29.2843 136.941 29.1345 137.125 28.9443C137.316 28.7564 137.467 28.529 137.568 28.2773C137.67 28.0257 137.719 27.7548 137.713 27.4824V10.042C137.723 8.81564 137.647 7.59007 137.485 6.375L137.421 5.83984H137.747L155.529 25.3994ZM72.6709 6.81934C69.7391 6.82275 67.3766 7.85387 65.584 9.91406C63.7882 11.9812 62.8907 14.7016 62.8906 18.0742C62.8906 21.447 63.7881 24.1672 65.584 26.2344C67.3798 28.2981 69.7422 29.3301 72.6709 29.3301C75.5996 29.3301 77.962 28.2981 79.7578 26.2344H79.7627C81.5553 24.1706 82.4512 21.4504 82.4512 18.0742C82.4511 14.6982 81.5536 11.9778 79.7578 9.91406C77.9652 7.84708 75.6027 6.81594 72.6709 6.81934ZM122.631 7.00684C124.549 7.00692 126.055 7.53922 127.149 8.60449C127.696 9.14282 128.124 9.78988 128.407 10.5039C128.69 11.2179 128.822 11.9833 128.792 12.751C128.824 14.3608 128.268 15.927 127.23 17.1562C126.776 17.7378 126.195 18.2072 125.531 18.5283C124.867 18.8494 124.138 19.0141 123.401 19.0088C123.822 19.2339 124.202 19.5271 124.526 19.877C124.945 20.2961 125.33 20.7472 125.68 21.2256C127.489 23.8264 128.672 25.4196 129.218 26.0244C129.763 26.629 130.151 27.0371 130.386 27.2627C130.626 27.4919 130.878 27.7088 131.142 27.9111C131.4 28.107 131.682 28.2711 131.979 28.4004C132.589 28.6979 133.259 28.8506 133.938 28.8467V29.1631H132.2C131.334 29.1735 130.474 29.0107 129.672 28.6836C129.037 28.4406 128.446 28.0968 127.92 27.666C127.56 27.353 127.222 27.0144 126.91 26.6533C126.623 26.3268 125.842 25.2329 124.555 23.376C123.267 21.5191 122.52 20.4585 122.31 20.1943C122.099 19.9289 121.879 19.6696 121.649 19.417C121.404 19.1087 121.098 18.8539 120.75 18.6689C120.403 18.4841 120.021 18.3727 119.629 18.3418V18.0254C119.848 18.049 120.069 18.0598 120.289 18.0586C120.562 18.0586 120.902 18.0254 121.3 18.0254C123.91 17.9613 125.554 16.8631 126.23 14.7324C126.349 14.3469 126.412 13.9464 126.417 13.543V12.832C126.437 11.6004 126.048 10.3971 125.312 9.41113C124.974 8.98666 124.546 8.64189 124.061 8.40137C123.575 8.16089 123.042 8.0296 122.501 8.01855C121.974 7.98497 121.342 7.98535 120.586 7.98535H118.566V26.8604C118.562 27.1229 118.612 27.3835 118.712 27.626C118.812 27.8687 118.962 28.0879 119.15 28.2705C119.337 28.4612 119.561 28.6122 119.808 28.7129C120.055 28.8135 120.319 28.8622 120.586 28.8564H120.988L121.021 29.1729H114.104V28.8564H114.517C114.776 28.8604 115.035 28.8119 115.275 28.7139C115.516 28.6158 115.735 28.4698 115.919 28.2852C116.108 28.1055 116.26 27.8901 116.366 27.6514C116.472 27.4125 116.53 27.1549 116.536 26.8936V9.31445C116.521 8.78296 116.3 8.27793 115.919 7.9082C115.738 7.72003 115.519 7.57137 115.278 7.4707C115.037 7.37008 114.778 7.3198 114.517 7.32324H114.104V7.00684H122.631ZM182.064 26.7861C182.327 27.406 182.767 27.939 183.331 28.3213C183.821 28.6576 184.404 28.8411 185.003 28.8467H185.271V29.1729H177.749V28.8467H178.053C178.251 28.8598 178.451 28.8265 178.634 28.75C178.817 28.6734 178.979 28.5548 179.106 28.4053C179.313 28.173 179.436 27.8806 179.456 27.5732C179.454 27.3058 179.41 27.0402 179.324 26.7861L177.182 21.2305H168.161L165.917 26.8213C165.832 27.0686 165.787 27.328 165.785 27.5889C165.807 27.891 165.93 28.1777 166.135 28.4053C166.262 28.5544 166.425 28.6724 166.607 28.749C166.745 28.8065 166.892 28.8391 167.04 28.8467H167.492V29.1729H160.771V28.8467H161.075C161.662 28.8375 162.233 28.654 162.711 28.3213C163.28 27.9357 163.731 27.4047 164.013 26.7861L171.57 9.20703C172.391 7.44438 172.806 6.33509 172.806 5.83984H173.104L182.064 26.7861ZM193.438 7.32324H193.021C192.759 7.31725 192.497 7.36375 192.253 7.46094C192.009 7.55823 191.787 7.70391 191.602 7.88867C191.412 8.07166 191.261 8.2909 191.158 8.53223C191.055 8.77345 191.002 9.033 191.001 9.29492V26.8613C190.992 27.121 191.036 27.3798 191.131 27.6221C191.226 27.8645 191.37 28.0857 191.554 28.2715C191.744 28.4605 191.97 28.6095 192.22 28.71C192.469 28.8105 192.737 28.8606 193.007 28.8564H193.423V29.1729H186.438V28.8564H186.854C187.119 28.8599 187.381 28.8096 187.625 28.709C187.869 28.6084 188.09 28.4596 188.273 28.2715C188.661 27.9014 188.886 27.3945 188.898 26.8613V9.28516C188.893 9.02302 188.836 8.7641 188.729 8.52441C188.621 8.28474 188.466 8.06851 188.273 7.88867C188.088 7.704 187.867 7.5582 187.623 7.46094C187.379 7.36365 187.117 7.31727 186.854 7.32324H186.438V7.00684H193.438V7.32324ZM11.9678 12.1689C17.7045 7.27409 22.2922 11.5354 22.3379 11.5781C17.1903 9.72103 10.3982 17.5568 7.8125 20.9453C5.23913 24.3126 8.28886 27.6565 8.32715 27.6982L0 20.8428C1.48741 20.7719 2.91595 19.9342 3.70312 19.3242C5.86766 17.6792 6.20232 17.0883 11.9678 12.1689ZM22.5068 20.0596L26.3008 20.9961L22.4873 22.0039L21.4844 25.8135L20.5469 22.0195L16.667 20.9961L20.5273 20.0439L21.4844 16.1787L22.5068 20.0596ZM21.1572 0C21.2241 1.49156 22.0668 2.91601 22.6729 3.70312C24.3218 5.86371 24.9118 6.20638 29.8311 11.9678C34.7291 17.7044 30.459 22.2981 30.4219 22.3379C32.279 17.1863 24.4431 10.3942 21.0547 7.80859C17.6801 5.23661 14.3369 8.29482 14.3018 8.32715L21.1572 0ZM168.562 20.25H176.782L172.771 9.76172L168.562 20.25Z" fill="#D9AA72"/>
</svg>
